<?xml version="1.0" standalone="no"?>
<!DOCTYPE svg PUBLIC "-//W3C//DTD SVG 20010904//EN"
 "http://www.w3.org/TR/2001/REC-SVG-20010904/DTD/svg10.dtd">
<svg version="1.0" xmlns="http://www.w3.org/2000/svg"
 width="600.000000pt" height="600.000000pt" viewBox="0 0 600.000000 600.000000"
 preserveAspectRatio="xMidYMid meet">
<metadata>
Created by potrace 1.14, written by Peter Selinger 2001-2017
</metadata>
<g transform="translate(0.000000,600.000000) scale(0.100000,-0.100000)"
fill="#000000" stroke="none">
<path d="M2978 5815 c-2 -2 -23 -5 -49 -8 -61 -7 -149 -39 -210 -76 -27 -17
-51 -31 -53 -31 -2 0 -97 -55 -212 -121 -256 -149 -268 -156 -324 -187 -25
-14 -169 -97 -320 -185 -269 -156 -319 -184 -390 -225 -19 -11 -91 -52 -160
-92 -168 -97 -188 -109 -240 -138 -253 -142 -365 -223 -412 -302 -12 -19 -25
-37 -28 -40 -7 -6 -46 -93 -43 -97 1 -1 -5 -20 -15 -40 -15 -35 -17 -144 -20
-1238 -4 -1322 -5 -1283 57 -1410 17 -33 49 -83 73 -111 73 -86 79 -90 528
-349 107 -62 503 -290 880 -507 377 -217 703 -404 725 -416 134 -68 330 -75
469 -17 22 9 126 67 230 127 199 115 476 275 751 433 343 197 693 398 745 430
30 18 71 42 90 53 219 124 265 154 324 216 60 63 102 133 132 221 l28 80 0
1170 c-1 644 -3 1197 -7 1230 -11 104 -49 197 -120 290 -73 95 -25 64 -907
573 -168 97 -388 224 -490 283 -828 478 -822 475 -962 482 -37 2 -69 3 -70 2z"/>
</g>
</svg>
